<?xml version="1.0" encoding="utf-8"?>
<!-- Svg Vector Icons : http://www.sfont.cn -->
<!DOCTYPE svg PUBLIC "-//W3C//DTD SVG 1.1//EN" "http://www.w3.org/Graphics/SVG/1.1/DTD/svg11.dtd">
<svg version="1.1" xmlns="http://www.w3.org/2000/svg" xmlns:xlink="http://www.w3.org/1999/xlink" x="0px" y="0px" viewBox="0 0 1000 1000" enable-background="new 0 0 1000 1000" xml:space="preserve">
<metadata> Svg Vector Icons : http://www.sfont.cn </metadata>
<g><path d="M241.1,737.2c0,33.1,26.2,60.1,58.3,60.1h42.1c-1.4,5-2.2,10.3-2.2,15.8v120.1c0,31.4,24.8,56.9,55.3,56.9c30.5,0,55.3-25.5,55.3-56.9V813c0-5.5-0.8-10.8-2.2-15.8h102.7c-1.4,5-2.2,10.3-2.2,15.8v120.1c0,31.4,24.8,56.9,55.3,56.9c30.5,0,55.3-25.5,55.3-56.9V813c0-5.5-0.8-10.8-2.2-15.8h42.1c32.2,0,58.3-27,58.3-60.1V320H241L241.1,737.2L241.1,737.2L241.1,737.2z M149,320c-30.5,0-55.3,25.5-55.3,56.9v243.3c0,31.4,24.7,56.9,55.3,56.9c30.5,0,55.3-25.5,55.3-56.9V376.9C204.2,345.5,179.5,320,149,320L149,320L149,320z M849,320c-30.5,0-55.2,25.5-55.2,56.9v243.3c0,31.4,24.7,56.9,55.2,56.9c30.5,0,55.2-25.5,55.2-56.9V376.9C904.3,345.5,879.6,320,849,320L849,320L849,320z M625.8,92.4l43.6-67.3c2.8-4.3,1.7-10.3-2.5-13.1c-4.3-2.9-10-1.7-12.8,2.6l-24.6,38l-10.4,16l-10.5,16.2C575.3,71.5,538.2,64,499,64c-39.2,0-76.3,7.5-109.6,20.7l-20.8-32.2l-24.7-38c-2.8-4.3-8.5-5.5-12.8-2.6c-4.2,2.9-5.4,8.8-2.5,13.1l43.6,67.3C294,129.8,241.1,200.9,241.1,282.1h515.8C756.9,200.9,704,129.8,625.8,92.4L625.8,92.4L625.8,92.4z M388.5,206.2c-15.3,0-27.6-12.8-27.6-28.4c0-15.7,12.4-28.4,27.6-28.4c15.2,0,27.6,12.7,27.6,28.4C416.1,193.5,403.7,206.2,388.5,206.2L388.5,206.2L388.5,206.2z M609.6,206.2c-15.3,0-27.6-12.8-27.6-28.4c0-15.7,12.4-28.4,27.6-28.4c15.3,0,27.6,12.7,27.6,28.4C637.2,193.5,624.8,206.2,609.6,206.2L609.6,206.2L609.6,206.2z M243.1,736.9c0,33.1,26.2,60.1,58.3,60.1h42.1c-1.4,5-2.2,10.3-2.2,15.8v120.1c0,31.4,24.8,56.9,55.3,56.9c30.5,0,55.3-25.5,55.3-56.9V812.7c0-5.5-0.8-10.8-2.2-15.8h102.7c-1.4,5-2.2,10.3-2.2,15.8v120.1c0,31.4,24.8,56.9,55.3,56.9c30.5,0,55.3-25.5,55.3-56.9V812.7c0-5.5-0.8-10.8-2.2-15.8h42.1c32.2,0,58.3-27,58.3-60.1V319.7H243.1L243.1,736.9L243.1,736.9L243.1,736.9z M151,319.7c-30.5,0-55.3,25.5-55.3,56.9v243.3c0,31.4,24.7,56.9,55.3,56.9c30.5,0,55.3-25.5,55.3-56.9V376.6C206.3,345.1,181.5,319.7,151,319.7L151,319.7L151,319.7z M851.1,319.7c-30.5,0-55.2,25.5-55.2,56.9v243.3c0,31.4,24.7,56.9,55.2,56.9c30.5,0,55.2-25.5,55.2-56.9V376.6C906.3,345.1,881.6,319.7,851.1,319.7L851.1,319.7L851.1,319.7z M627.9,92l43.6-67.3c2.8-4.3,1.7-10.3-2.5-13.1c-4.3-2.9-10-1.7-12.8,2.6l-24.6,38l-10.4,16l-10.5,16.2C577.3,71.2,540.2,63.7,501,63.7c-39.2,0-76.3,7.5-109.6,20.7l-20.8-32.2l-24.7-38c-2.8-4.3-8.5-5.5-12.8-2.6c-4.2,2.9-5.4,8.8-2.5,13.1L374.2,92C296,129.5,243.1,200.5,243.1,281.8h515.8C758.9,200.5,706,129.5,627.9,92L627.9,92L627.9,92z M390.5,205.9c-15.3,0-27.6-12.8-27.6-28.4c0-15.7,12.4-28.4,27.6-28.4c15.2,0,27.6,12.7,27.6,28.4C418.1,193.2,405.7,205.9,390.5,205.9L390.5,205.9L390.5,205.9z M611.6,205.9c-15.3,0-27.6-12.8-27.6-28.4c0-15.7,12.4-28.4,27.6-28.4c15.3,0,27.6,12.7,27.6,28.4C639.2,193.2,626.8,205.9,611.6,205.9L611.6,205.9L611.6,205.9z"/></g>
</svg>